<svg display="none" version="1.1" xmlns="http://www.w3.org/2000/svg" xmlns:xlink="http://www.w3.org/1999/xlink">
<defs>
<symbol id="icon-lock" viewBox="0 0 1024 1024">
	<title>lock</title>
	<path class="path1" d="M810.667 384v-128c0-85.333-85.333-213.333-298.667-213.333s-298.667 128-298.667 213.333v128h-85.333v469.333c0 70.571 57.429 128 128 128h512c70.571 0 128-57.429 128-128v-469.333h-85.333zM298.667 213.333c0 0 42.667-85.333 213.333-85.333s213.333 85.333 213.333 85.333v170.667h-426.667v-170.667zM810.667 853.333c0 23.509-19.115 42.667-42.667 42.667h-512c-23.552 0-42.667-19.157-42.667-42.667v-384h597.333v384zM469.333 713.515v97.152h85.333v-97.152c25.429-14.805 42.667-41.984 42.667-73.515 0-47.104-38.229-85.333-85.333-85.333s-85.333 38.229-85.333 85.333c0 31.488 17.237 58.709 42.667 73.515z"></path>
</symbol>
<symbol id="icon-screen" viewBox="0 0 1024 1024">
	<title>screen</title>
	<path class="path1" d="M0 85.333v597.333h416l-74.667 128h341.333l-74.667-128h416v-597.333h-1024zM938.667 597.333h-853.333v-426.667h853.333v426.667zM725.333 853.333h-426.667c-23.467 0-42.667 19.2-42.667 42.667s19.2 42.667 42.667 42.667h426.667c23.467 0 42.667-19.2 42.667-42.667s-19.2-42.667-42.667-42.667z"></path>
</symbol>
<symbol id="icon-phone" viewBox="0 0 1024 1024">
	<title>phone</title>
	<path class="path1" d="M682.667 128h-341.333c-46.933 0-85.333 38.4-85.333 85.333v597.333c0 46.933 38.4 85.333 85.333 85.333h341.333c46.933 0 85.333-38.4 85.333-85.333v-597.333c0-46.933-38.4-85.333-85.333-85.333zM554.667 853.333h-85.333v-85.333h85.333v85.333zM682.667 725.333h-341.333v-512h341.333v512z"></path>
</symbol>
<symbol id="icon-phone-portrait" viewBox="0 0 1024 1024">
	<title>phone-portrait</title>
	<path class="path1" d="M896 384h-298.667v85.333h298.667v341.333h-298.667c0 46.933-42.667 85.333-42.667 85.333h341.333c46.933 0 85.333-38.4 85.333-85.333v-341.333c0-46.933-38.4-85.333-85.333-85.333zM426.667 128h-341.333c-46.933 0-85.333 38.4-85.333 85.333v597.333c0 46.933 38.4 85.333 85.333 85.333h341.333c46.933 0 85.333-38.4 85.333-85.333v-597.333c0-46.933-38.4-85.333-85.333-85.333zM298.667 853.333h-85.333v-85.333h85.333v85.333zM426.667 725.333h-341.333v-512h341.333v512z"></path>
</symbol>
<symbol id="icon-phone-landscape" viewBox="0 0 1024 1024">
	<title>phone-landscape</title>
	<path class="path1" d="M85.333 213.333h341.333v85.333h85.333v-85.333c0-46.933-38.4-85.333-85.333-85.333h-341.333c-46.933 0-85.333 38.4-85.333 85.333v597.333c0 46.933 32.469 85.333 79.36 85.333h48.64v-170.667h-42.667v-512zM896 384h-597.333c-46.933 0-85.333 38.4-85.333 85.333v341.333c0 46.933 38.4 85.333 85.333 85.333h597.333c46.933 0 85.333-38.4 85.333-85.333v-341.333c0-46.933-38.4-85.333-85.333-85.333zM341.333 682.667h-85.333v-85.333h85.333v85.333zM896 810.667h-512v-341.333h512v341.333z"></path>
</symbol>
<symbol id="icon-tablet" viewBox="0 0 1024 1024">
	<title>tablet</title>
	<path class="path1" d="M810.667 42.667h-597.333c-46.933 0-85.333 38.4-85.333 85.333v768c0 46.933 38.4 85.333 85.333 85.333h597.333c46.933 0 85.333-38.4 85.333-85.333v-768c0-46.933-38.4-85.333-85.333-85.333zM554.667 938.667h-85.333v-85.333h85.333v85.333zM810.667 810.667h-597.333v-682.667h597.333v682.667z"></path>
</symbol>
<symbol id="icon-tablet-landscape" viewBox="0 0 1024 1024">
	<title>tablet-landscape</title>
	<path class="path1" d="M981.333 810.667v-597.333c0-46.933-38.4-85.333-85.333-85.333h-768c-46.933 0-85.333 38.4-85.333 85.333v597.333c0 46.933 38.4 85.333 85.333 85.333h768c46.933 0 85.333-38.4 85.333-85.333zM85.333 554.667v-85.333h85.333v85.333h-85.333zM213.333 810.667v-597.333h682.667v597.333h-682.667z"></path>
</symbol>
<symbol id="icon-laptop" viewBox="0 0 1024 1024">
	<title>laptop</title>
	<path class="path1" d="M128 256h768v426.667h85.333v-512h-938.667v512h85.333v-426.667zM682.667 725.333c-8.192 17.152-48.853 30.933-85.333 37.803v4.864h-170.667v-4.864c-36.48-6.869-77.141-20.651-85.333-37.803h-341.333v42.667c0 46.933 128 85.333 128 85.333h768c0 0 128-38.4 128-85.333v-42.667h-341.333zM853.333 810.667h-42.667v-42.667h42.667v42.667z"></path>
</symbol>
<symbol id="icon-home" viewBox="0 0 1024 1024">
	<title>home</title>
	<path class="path1" d="M1024 608l-192-192v-288h-128v160l-192-192-512 512v32h128v320h320v-192h128v192h320v-320h128z"></path>
</symbol>
<symbol id="icon-lapiz" viewBox="0 0 1024 1024">
	<title>lapiz</title>
	<path class="path1" d="M864 0c88.364 0 160 71.634 160 160 0 36.020-11.91 69.258-32 96l-64 64-224-224 64-64c26.742-20.090 59.978-32 96-32zM64 736l-64 288 288-64 592-592-224-224-592 592zM715.578 363.578l-448 448-55.156-55.156 448-448 55.156 55.156z"></path>
</symbol>
<symbol id="icon-lapiz2" viewBox="0 0 1024 1024">
	<title>lapiz2</title>
	<path class="path1" d="M384 640l128-64 448-448-64-64-448 448-64 128zM289.3 867.098c-31.632-66.728-65.666-100.762-132.396-132.394l99.096-272.792 128-77.912 384-384h-192l-384 384-192 640 640-192 384-384v-192l-384 384-77.912 128z"></path>
</symbol>
<symbol id="icon-pen" viewBox="0 0 1024 1024">
	<title>pen</title>
	<path class="path1" d="M960.004 288.006l-223.998-223.998 64-64 223.998 223.998zM896 352l-32 352c-288 0-704 320-704 320l-53.13-53.13 273.664-273.664c10.974 4.368 22.934 6.794 35.466 6.794 53.020 0 96-42.98 96-96s-42.98-96-96-96c-53.020 0-96 42.98-96 96 0 12.532 2.426 24.49 6.794 35.466l-273.664 273.664-53.13-53.13c0 0 320-416 320-704l352-32 224 224z"></path>
</symbol>
<symbol id="icon-images" viewBox="0 0 1024 1024">
	<title>images</title>
	<path class="path1" d="M128 256v640h896v-640h-896zM960 789.334l-128-213.334-145.066 120.888-110.934-184.888-384 320v-512h768v469.334zM256 480c0-53.019 42.981-96 96-96s96 42.981 96 96c0 53.019-42.981 96-96 96s-96-42.981-96-96zM896 128h-896v640h64v-576h832z"></path>
</symbol>
<symbol id="icon-bullhorn" viewBox="0 0 1024 1024">
	<title>bullhorn</title>
	<path class="path1" d="M1024 429.256c0-200.926-58.792-363.938-131.482-365.226 0.292-0.006 0.578-0.030 0.872-0.030h-82.942c0 0-194.8 146.336-475.23 203.754-8.56 45.292-14.030 99.274-14.030 161.502s5.466 116.208 14.030 161.5c280.428 57.418 475.23 203.756 475.23 203.756h82.942c-0.292 0-0.578-0.024-0.872-0.032 72.696-1.288 131.482-164.298 131.482-365.224zM864.824 739.252c-9.382 0-19.532-9.742-24.746-15.548-12.63-14.064-24.792-35.96-35.188-63.328-23.256-61.232-36.066-143.31-36.066-231.124 0-87.81 12.81-169.89 36.066-231.122 10.394-27.368 22.562-49.266 35.188-63.328 5.214-5.812 15.364-15.552 24.746-15.552 9.38 0 19.536 9.744 24.744 15.552 12.634 14.064 24.796 35.958 35.188 63.328 23.258 61.23 36.068 143.312 36.068 231.122 0 87.804-12.81 169.888-36.068 231.124-10.39 27.368-22.562 49.264-35.188 63.328-5.208 5.806-15.36 15.548-24.744 15.548zM251.812 429.256c0-51.95 3.81-102.43 11.052-149.094-47.372 6.554-88.942 10.324-140.34 10.324-67.058 0-67.058 0-67.058 0l-55.466 94.686v88.17l55.46 94.686c0 0 0 0 67.060 0 51.398 0 92.968 3.774 140.34 10.324-7.236-46.664-11.048-97.146-11.048-149.096zM368.15 642.172l-127.998-24.51 81.842 321.544c4.236 16.634 20.744 25.038 36.686 18.654l118.556-47.452c15.944-6.376 22.328-23.964 14.196-39.084l-123.282-229.152zM864.824 548.73c-3.618 0-7.528-3.754-9.538-5.992-4.87-5.42-9.556-13.86-13.562-24.408-8.962-23.6-13.9-55.234-13.9-89.078s4.938-65.478 13.9-89.078c4.006-10.548 8.696-18.988 13.562-24.408 2.010-2.24 5.92-5.994 9.538-5.994 3.616 0 7.53 3.756 9.538 5.994 4.87 5.42 9.556 13.858 13.56 24.408 8.964 23.598 13.902 55.234 13.902 89.078 0 33.842-4.938 65.478-13.902 89.078-4.004 10.548-8.696 18.988-13.56 24.408-2.008 2.238-5.92 5.992-9.538 5.992z"></path>
</symbol>
<symbol id="icon-book" viewBox="0 0 1024 1024">
	<title>book</title>
	<path class="path1" d="M896 128v832h-672c-53.022 0-96-42.98-96-96 0-53.018 42.978-96 96-96h608v-768h-640c-70.398 0-128 57.6-128 128v768c0 70.4 57.602 128 128 128h768v-896h-64zM256 832h576v64h-576z"></path>
</symbol>
<symbol id="icon-books" viewBox="0 0 1024 1024">
	<title>books</title>
	<path class="path1" d="M576.234 289.27l242.712-81.432 203.584 606.784-242.712 81.432zM0 896h256v-704h-256v704zM64 320h128v64h-128v-64zM320 896h256v-704h-256v704zM384 320h128v64h-128v-64z"></path>
</symbol>
<symbol id="icon-file" viewBox="0 0 1024 1024">
	<title>file</title>
	<path class="path1" d="M892.118 188.118l-120.234-120.236c-37.338-37.336-111.084-67.882-163.884-67.882h-448c-52.8 0-96 43.2-96 96v832c0 52.8 43.2 96 96 96h704c52.8 0 96-43.2 96-96v-576c0-52.8-30.546-126.546-67.882-163.882zM640 135.562c2.196 0.804 4.452 1.68 6.758 2.636 18.060 7.482 30.598 16.176 34.616 20.194l120.236 120.238c4.018 4.018 12.712 16.554 20.194 34.614 0.956 2.306 1.832 4.562 2.636 6.756h-184.44v-184.438zM832 896h-640v-768h384v256h256v512zM256 512h512v64h-512zM256 640h512v64h-512zM256 768h512v64h-512z"></path>
</symbol>
<symbol id="icon-folder-open" viewBox="0 0 1024 1024">
	<title>folder-open</title>
	<path class="path1" d="M832 960l192-512h-832l-192 512zM128 384l-128 576v-832h288l128 128h416v128z"></path>
</symbol>
<symbol id="icon-location" viewBox="0 0 1024 1024">
	<title>location</title>
	<path class="path1" d="M512 0c-176.732 0-320 143.268-320 320 0 320 320 704 320 704s320-384 320-704c0-176.732-143.27-320-320-320zM512 512c-106.040 0-192-85.96-192-192s85.96-192 192-192 192 85.96 192 192-85.96 192-192 192z"></path>
</symbol>
<symbol id="icon-compass" viewBox="0 0 1024 1024">
	<title>compass</title>
	<path class="path1" d="M512 0c-282.77 0-512 229.23-512 512s229.23 512 512 512 512-229.23 512-512-229.23-512-512-512zM512 928c-229.75 0-416-186.25-416-416s186.25-416 416-416 416 186.25 416 416-186.25 416-416 416zM608 416l-288-160h-64v64l160 288 288 160h64v-64l-160-288zM512 576c-35.346 0-64-28.654-64-64s28.654-64 64-64c35.346 0 64 28.654 64 64s-28.654 64-64 64z"></path>
</symbol>
<symbol id="icon-keyboard" viewBox="0 0 1152 1024">
	<title>keyboard</title>
	<path class="path1" d="M1088 128h-1024c-35.2 0-64 28.8-64 64v640c0 35.2 28.8 64 64 64h1024c35.2 0 64-28.8 64-64v-640c0-35.2-28.8-64-64-64zM640 256h128v128h-128v-128zM832 448v128h-128v-128h128zM448 256h128v128h-128v-128zM640 448v128h-128v-128h128zM256 256h128v128h-128v-128zM448 448v128h-128v-128h128zM128 256h64v128h-64v-128zM128 448h128v128h-128v-128zM192 768h-64v-128h64v128zM768 768h-512v-128h512v128zM1024 768h-192v-128h192v128zM1024 576h-128v-128h128v128zM1024 384h-192v-128h192v128z"></path>
</symbol>
<symbol id="icon-screen2" viewBox="0 0 1024 1024">
	<title>screen2</title>
	<path class="path1" d="M1024 832v-768h-1024v768h448v64h-192v64h512v-64h-192v-64h448zM128 192h768v512h-768v-512z"></path>
</symbol>
<symbol id="icon-mobile" viewBox="0 0 1024 1024">
	<title>mobile</title>
	<path class="path1" d="M736 0h-448c-52.8 0-96 43.2-96 96v832c0 52.8 43.2 96 96 96h448c52.8 0 96-43.2 96-96v-832c0-52.8-43.2-96-96-96zM384 48h256v32h-256v-32zM512 960c-35.346 0-64-28.654-64-64s28.654-64 64-64 64 28.654 64 64-28.654 64-64 64zM768 768h-512v-640h512v640z"></path>
</symbol>
<symbol id="icon-box-add" viewBox="0 0 1024 1024">
	<title>box-add</title>
	<path class="path1" d="M832 64h-640l-192 192v672c0 17.674 14.326 32 32 32h960c17.672 0 32-14.326 32-32v-672l-192-192zM512 832l-320-256h192v-192h256v192h192l-320 256zM154.51 192l64-64h586.978l64 64h-714.978z"></path>
</symbol>
<symbol id="icon-bubbles" viewBox="0 0 1152 1024">
	<title>bubbles</title>
	<path class="path1" d="M480 0v0c265.096 0 480 173.914 480 388.448s-214.904 388.448-480 388.448c-25.458 0-50.446-1.62-74.834-4.71-103.106 102.694-222.172 121.108-341.166 123.814v-25.134c64.252-31.354 116-88.466 116-153.734 0-9.106-0.712-18.048-2.030-26.794-108.558-71.214-177.97-179.988-177.97-301.89 0-214.534 214.904-388.448 480-388.448zM996 870.686c0 55.942 36.314 104.898 92 131.772v21.542c-103.126-2.318-197.786-18.102-287.142-106.126-21.14 2.65-42.794 4.040-64.858 4.040-95.47 0-183.408-25.758-253.614-69.040 144.674-0.506 281.26-46.854 384.834-130.672 52.208-42.252 93.394-91.826 122.414-147.348 30.766-58.866 46.366-121.582 46.366-186.406 0-10.448-0.45-20.836-1.258-31.168 72.57 59.934 117.258 141.622 117.258 231.676 0 104.488-60.158 197.722-154.24 258.764-1.142 7.496-1.76 15.16-1.76 22.966z"></path>
</symbol>
<symbol id="icon-users" viewBox="0 0 1024 1024">
	<title>users</title>
	<path class="path1" d="M734.994 805.374c-18.952-2.988-19.384-54.654-19.384-54.654s55.688-54.656 67.824-128.152c32.652 0 52.814-78.138 20.164-105.628 1.362-28.94 41.968-227.176-163.598-227.176-205.564 0-164.958 198.236-163.598 227.176-32.654 27.49-12.488 105.628 20.162 105.628 12.134 73.496 67.826 128.152 67.826 128.152s-0.432 51.666-19.384 54.654c-61.048 9.632-289.006 109.316-289.006 218.626h768c0-109.31-227.958-208.994-289.006-218.626zM344.054 822.81c44.094-27.15 97.626-52.308 141.538-67.424-15.752-22.432-33.294-52.936-44.33-89.062-15.406-12.566-27.944-30.532-35.998-52.602-8.066-22.104-11.122-46.852-8.608-69.684 1.804-16.392 6.478-31.666 13.65-45.088-4.35-46.586-7.414-138.034 52.448-204.732 23.214-25.866 52.556-44.46 87.7-55.686-6.274-64.76-39.16-140.77-166.454-140.77-205.564 0-164.958 198.236-163.598 227.176-32.654 27.49-12.488 105.628 20.162 105.628 12.134 73.496 67.826 128.152 67.826 128.152s-0.432 51.666-19.384 54.654c-61.048 9.634-289.006 109.318-289.006 218.628h329.596c4.71-3.074 9.506-6.14 14.458-9.19z"></path>
</symbol>
<symbol id="icon-cog" viewBox="0 0 1024 1024">
	<title>cog</title>
	<path class="path1" d="M1024 608.094v-192.188l-146.774-24.462c-5.958-18.132-13.222-35.668-21.694-52.5l86.454-121.034-135.896-135.898-120.826 86.304c-16.91-8.554-34.538-15.888-52.768-21.902l-24.402-146.414h-192.188l-24.402 146.416c-18.23 6.014-35.858 13.348-52.766 21.902l-120.828-86.304-135.898 135.898 86.454 121.036c-8.47 16.83-15.734 34.366-21.692 52.498l-146.774 24.46v192.188l147.118 24.52c5.96 17.968 13.21 35.348 21.642 52.030l-86.748 121.448 135.898 135.896 121.654-86.894c16.602 8.35 33.89 15.528 51.764 21.434l24.578 147.472h192.188l24.578-147.474c17.874-5.906 35.162-13.084 51.766-21.432l121.652 86.892 135.896-135.896-86.744-121.446c8.432-16.682 15.678-34.062 21.64-52.032l147.118-24.518zM512 640c-70.692 0-128-57.306-128-128 0-70.692 57.308-128 128-128 70.694 0 128 57.308 128 128 0 70.694-57.306 128-128 128z"></path>
</symbol>
<symbol id="icon-stats" viewBox="0 0 1024 1024">
	<title>stats</title>
	<path class="path1" d="M128 896h896v128h-1024v-1024h128zM288 832c-53.020 0-96-42.98-96-96s42.98-96 96-96c2.828 0 5.622 0.148 8.388 0.386l103.192-171.986c-9.84-15.070-15.58-33.062-15.58-52.402 0-53.020 42.98-96 96-96s96 42.98 96 96c0 19.342-5.74 37.332-15.58 52.402l103.192 171.986c2.766-0.238 5.56-0.386 8.388-0.386 2.136 0 4.248 0.094 6.35 0.23l170.356-298.122c-10.536-15.408-16.706-34.036-16.706-54.11 0-53.020 42.98-96 96-96s96 42.98 96 96c0 53.020-42.98 96-96 96-2.14 0-4.248-0.094-6.35-0.232l-170.356 298.124c10.536 15.406 16.706 34.036 16.706 54.11 0 53.020-42.98 96-96 96s-96-42.98-96-96c0-19.34 5.74-37.332 15.578-52.402l-103.19-171.984c-2.766 0.238-5.56 0.386-8.388 0.386s-5.622-0.146-8.388-0.386l-103.192 171.986c9.84 15.068 15.58 33.060 15.58 52.4 0 53.020-42.98 96-96 96z"></path>
</symbol>
<symbol id="icon-gift" viewBox="0 0 1024 1024">
	<title>gift</title>
	<path class="path1" d="M771.516 320c18.126-12.88 35.512-27.216 51.444-43.148 33.402-33.402 55.746-74.5 62.912-115.722 7.858-45.186-3.672-87.14-31.63-115.1-22.3-22.298-52.51-34.086-87.364-34.086-49.632 0-101.922 23.824-143.46 65.362-66.476 66.476-105.226 158.238-126.076 223.722-15.44-65.802-46.206-154.644-106.018-214.458-32.094-32.092-73.114-48.57-111.846-48.57-31.654 0-61.78 11.004-84.26 33.486-49.986 49.988-43.232 137.786 15.086 196.104 20.792 20.792 45.098 38.062 70.72 52.412h-217.024v256h64v448h768v-448.002h64v-256h-188.484zM674.326 128.218c27.724-27.724 62.322-44.274 92.55-44.274 10.7 0 25.708 2.254 36.45 12.998 26.030 26.028 11.412 86.308-31.28 128.998-43.946 43.946-103.060 74.168-154.432 94.060h-50.672c18.568-57.548 52.058-136.456 107.384-191.782zM233.934 160.89c-0.702-9.12-0.050-26.248 12.196-38.494 10.244-10.244 23.788-12.396 33.348-12.396v0c21.258 0 43.468 10.016 60.932 27.48 33.872 33.872 61.766 87.772 80.668 155.876 0.51 1.84 1.008 3.67 1.496 5.486-1.816-0.486-3.646-0.984-5.486-1.496-68.104-18.904-122.002-46.798-155.874-80.67-15.828-15.826-25.77-36.16-27.28-55.786zM448 960h-256v-416h256v416zM448 512h-320v-128h320v128zM832 960h-256v-416h256v416zM896 512h-320v-128h320v128z"></path>
</symbol>
<symbol id="icon-remove" viewBox="0 0 1024 1024">
	<title>remove</title>
	<path class="path1" d="M800 128h-576c-53.020 0-96 42.98-96 96v32h768v-32c0-53.020-42.98-96-96-96zM632.32 64l14.116 101h-268.872l14.114-101h240.642zM640 0h-256c-26.4 0-50.99 21.392-54.642 47.538l-18.714 133.924c-3.654 26.146 14.956 47.538 41.356 47.538h320c26.4 0 45.010-21.392 41.358-47.538l-18.714-133.924c-3.654-26.146-28.244-47.538-54.644-47.538v0zM816 320h-608c-35.2 0-61.392 28.682-58.206 63.738l52.412 576.526c3.186 35.054 34.594 63.736 69.794 63.736h480c35.2 0 66.608-28.682 69.794-63.736l52.41-576.526c3.188-35.056-23.004-63.738-58.204-63.738zM384 896h-96l-32-448h128v448zM576 896h-128v-448h128v448zM736 896h-96v-448h128l-32 448z"></path>
</symbol>
<symbol id="icon-switch" viewBox="0 0 1024 1024">
	<title>switch</title>
	<path class="path1" d="M640 146.588v135.958c36.206 15.804 69.5 38.408 98.274 67.18 60.442 60.44 93.726 140.8 93.726 226.274s-33.286 165.834-93.726 226.274c-60.44 60.44-140.798 93.726-226.274 93.726s-165.834-33.286-226.274-93.726c-60.44-60.44-93.726-140.8-93.726-226.274s33.286-165.834 93.726-226.274c28.774-28.774 62.068-51.378 98.274-67.182v-135.956c-185.048 55.080-320 226.472-320 429.412 0 247.424 200.578 448 448 448 247.424 0 448-200.576 448-448 0-202.94-134.95-374.332-320-429.412zM448 0h128v512h-128z"></path>
</symbol>
<symbol id="icon-tree" viewBox="0 0 1024 1024">
	<title>tree</title>
	<path class="path1" d="M976 768h-16v-208c0-61.756-50.242-112-112-112h-272v-128h16c26.4 0 48-21.6 48-48v-160c0-26.4-21.6-48-48-48h-160c-26.4 0-48 21.6-48 48v160c0 26.4 21.6 48 48 48h16v128h-272c-61.756 0-112 50.244-112 112v208h-16c-26.4 0-48 21.6-48 48v160c0 26.4 21.6 48 48 48h160c26.4 0 48-21.6 48-48v-160c0-26.4-21.6-48-48-48h-16v-192h256v192h-16c-26.4 0-48 21.6-48 48v160c0 26.4 21.6 48 48 48h160c26.4 0 48-21.6 48-48v-160c0-26.4-21.6-48-48-48h-16v-192h256v192h-16c-26.4 0-48 21.6-48 48v160c0 26.4 21.6 48 48 48h160c26.4 0 48-21.6 48-48v-160c0-26.4-21.6-48-48-48zM192 960h-128v-128h128v128zM576 960h-128v-128h128v128zM448 256v-128h128v128h-128zM960 960h-128v-128h128v128z"></path>
</symbol>
<symbol id="icon-attachment" viewBox="0 0 1024 1024">
	<title>attachment</title>
	<path class="path1" d="M697.832 327.048l-64.952-64.922-324.81 324.742c-53.814 53.792-53.814 141.048 0 194.844 53.804 53.792 141.060 53.792 194.874 0l389.772-389.708c89.714-89.662 89.714-235.062 0-324.726-89.666-89.704-235.112-89.704-324.782 0l-409.23 409.178c-0.29 0.304-0.612 0.576-0.876 0.846-125.102 125.096-125.102 327.856 0 452.906 125.054 125.056 327.868 125.056 452.988 0 0.274-0.274 0.516-0.568 0.82-0.876l0.032 0.034 279.332-279.292-64.986-64.92-279.33 279.262c-0.296 0.268-0.564 0.57-0.846 0.844-89.074 89.058-233.98 89.058-323.076 0-89.062-89.042-89.062-233.922 0-322.978 0.304-0.304 0.604-0.582 0.888-0.846l-0.046-0.060 409.28-409.166c53.712-53.738 141.144-53.738 194.886 0 53.712 53.734 53.712 141.148 0 194.84l-389.772 389.7c-17.936 17.922-47.054 17.922-64.972 0-17.894-17.886-17.894-47.032 0-64.92l324.806-324.782z"></path>
</symbol>
<symbol id="icon-bookmark" viewBox="0 0 1024 1024">
	<title>bookmark</title>
	<path class="path1" d="M192 0v1024l320-320 320 320v-1024z"></path>
</symbol>
<symbol id="icon-star" viewBox="0 0 1024 1024">
	<title>star</title>
	<path class="path1" d="M1024 397.050l-353.78-51.408-158.22-320.582-158.216 320.582-353.784 51.408 256 249.538-60.432 352.352 316.432-166.358 316.432 166.358-60.434-352.352 256.002-249.538z"></path>
</symbol>
<symbol id="icon-heart" viewBox="0 0 1024 1024">
	<title>heart</title>
	<path class="path1" d="M1024 358.156c0 86.362-37.218 164.030-96.49 217.844h0.49l-320 320c-32 32-64 64-96 64s-64-32-96-64l-319.51-320c-59.272-53.814-96.49-131.482-96.49-217.844 0-162.458 131.698-294.156 294.156-294.156 86.362 0 164.030 37.218 217.844 96.49 53.814-59.272 131.482-96.49 217.844-96.49 162.456 0 294.156 131.698 294.156 294.156z"></path>
</symbol>
<symbol id="icon-thumbs-up" viewBox="0 0 1024 1024">
	<title>thumbs-up</title>
	<path class="path1" d="M928 576c73 0 32 192-32 192 32 0 0 160-64 160 0 64-64 96-128 96-270.352 0-175.264-67.65-448-96v-512c240.922-72.268 480-253.424 480-416 53 0 192 64 0 384 0 0 160 0 192 0 96 0 64 192 0 192zM192 416v512h64v32h-128c-35.2 0-64-43.2-64-96v-384c0-52.8 28.8-96 64-96h128v32h-64z"></path>
</symbol>
<symbol id="icon-thumbs-up2" viewBox="0 0 1024 1024">
	<title>thumbs-up2</title>
	<path class="path1" d="M96 448c-73 0-32-192 32-192-32 0 0-160 64-160 0-64 64-96 128-96 270.352 0 175.264 67.65 448 96v512c-240.922 72.268-480 253.424-480 416-53 0-192-64 0-384 0 0-160 0-192 0-96 0-64-192 0-192zM832 608v-512h-64v-32h128c35.2 0 64 43.2 64 96v384c0 52.8-28.8 96-64 96h-128v-32h64z"></path>
</symbol>
<symbol id="icon-enter" viewBox="0 0 1024 1024">
	<title>enter</title>
	<path class="path1" d="M384 512h-320v-128h320v-128l192 192-192 192zM1024 0v832l-384 192v-192h-384v-256h64v192h320v-576l256-128h-576v256h-64v-320z"></path>
</symbol>
<symbol id="icon-exit" viewBox="0 0 1024 1024">
	<title>exit</title>
	<path class="path1" d="M768 640v-128h-320v-128h320v-128l192 192zM704 576v256h-320v192l-384-192v-832h704v320h-64v-256h-512l256 128v576h256v-192z"></path>
</symbol>
<symbol id="icon-embed" viewBox="0 0 1024 1024">
	<title>embed</title>
	<path class="path1" d="M288 256l-256 256 256 256h128l-256-256 256-256h-128zM736 256h-128l256 256-256 256h128l256-256-256-256z"></path>
</symbol>
<symbol id="icon-code" viewBox="0 0 1024 1024">
	<title>code</title>
	<path class="path1" d="M128 512l256-256h-128l-256 256 256 256h128zM768 256h-128l256 256-256 256h128l256-256zM544 128l-160 768h96l160-768z"></path>
</symbol>
<symbol id="icon-console" viewBox="0 0 1024 1024">
	<title>console</title>
	<path class="path1" d="M0 64v896h1024v-896h-1024zM960 896h-896v-768h896v768zM896 192h-768v640h768v-640zM448 512h-64v64h-64v64h-64v-64h64v-64h64v-64h-64v-64h-64v-64h64v64h64v64h64v64zM704 640h-192v-64h192v64z"></path>
</symbol>
<symbol id="icon-github" viewBox="0 0 1024 1024">
	<title>github</title>
	<path class="path1" d="M512 0c-282.77 0-512 229.23-512 512s229.23 512 512 512 512-229.23 512-512-229.23-512-512-512zM816.056 816.056c-39.518 39.516-85.512 70.532-136.708 92.186-13.006 5.5-26.214 10.328-39.6 14.492v-76.734c0-40.334-13.834-70-41.5-89 17.334-1.666 33.25-4 47.75-7s29.834-7.334 46-13 30.666-12.416 43.5-20.25 25.166-18 37-30.5 21.75-26.666 29.75-42.5 14.334-34.834 19-57 7-46.584 7-73.25c0-51.666-16.834-95.666-50.5-132 15.334-40 13.666-83.5-5-130.5l-12.5-1.5c-8.666-1-24.25 2.666-46.75 11s-47.75 22-75.75 41c-39.666-11-80.834-16.5-123.5-16.5-43 0-84 5.5-123 16.5-17.666-12-34.416-21.916-50.25-29.75s-28.5-13.166-38-16-18.334-4.584-26.5-5.25-13.416-0.834-15.75-0.5-4 0.666-5 1c-18.666 47.334-20.334 90.834-5 130.5-33.666 36.334-50.5 80.334-50.5 132 0 26.666 2.334 51.084 7 73.25s11 41.166 19 57 17.916 30 29.75 42.5 24.166 22.666 37 30.5 27.334 14.584 43.5 20.25 31.5 10 46 13 30.416 5.334 47.75 7c-27.334 18.666-41 48.334-41 89v78.23c-15.098-4.494-29.98-9.804-44.6-15.988-51.194-21.654-97.188-52.67-136.706-92.186-39.516-39.518-70.534-85.512-92.186-136.708-22.398-52.958-33.756-109.262-33.756-167.348s11.358-114.39 33.758-167.35c21.654-51.194 52.67-97.188 92.186-136.706s85.512-70.534 136.706-92.186c52.96-22.4 109.264-33.758 167.35-33.758s114.39 11.358 167.35 33.758c51.196 21.654 97.19 52.67 136.708 92.186 39.516 39.516 70.532 85.512 92.186 136.706 22.398 52.96 33.756 109.264 33.756 167.35s-11.358 114.39-33.758 167.35c-21.654 51.194-52.67 97.19-92.186 136.706z"></path>
</symbol>
<symbol id="icon-github2" viewBox="0 0 1024 1024">
	<title>github2</title>
	<path class="path1" d="M235.278 248.72c-50.792 0-94.484 16.806-131.084 50.416-38.086 35.852-57.14 80.66-57.14 134.436 0 35.852 10.376 69.462 31.294 100.832 18.674 29.126 38.18 47.806 63.778 56.024v2.242c-25.598 10.448-36.966 36.59-36.966 78.418 0 32.124 11.372 56.022 36.966 71.708v2.242c-70.654 23.146-102.992 66.094-102.992 128.83 0 54.534 23.748 94.488 70.066 119.878 36.59 20.172 83.578 30.254 140.346 30.254 138.17 0 207.406-57.882 207.406-173.664 0-72.446-53.322-116.882-160.128-133.316-24.646-3.726-43.286-12.696-55.982-26.89-9.708-9.708-14.542-19.418-14.542-29.126 0-27.632 14.958-43.696 44.82-48.176 45.558-6.714 82.728-27.824 111.486-63.296 28.75-35.48 43.13-77.118 43.13-124.916 0-14.938-4.518-30.996-10.488-48.172 19.418-4.488 33.050-8.594 43.292-12.332v-115.392c-45.054 17.928-86.99 26.884-122.842 26.884-31.374-17.922-63.824-26.884-100.42-26.884zM247.602 807.77c62.744 0 94.104 19.042 94.104 57.14 0 40.336-28.754 60.492-86.264 60.492-65.724 0-98.586-19.422-98.586-58.254-0.002-39.59 30.244-59.378 90.746-59.378zM239.76 512c-47.054 0-70.586-25.764-70.586-77.308 0-55.262 23.532-82.906 70.586-82.906 22.402 0 39.958 8.596 52.652 25.768 10.458 15.69 15.69 34.36 15.69 56.022 0 52.278-22.786 78.424-68.342 78.424zM580.384 0c-21.656 0-40.14 8.214-55.454 24.648-15.314 16.436-22.97 36.216-22.97 59.376 0 22.41 7.658 41.82 22.97 58.258 15.308 16.434 33.792 24.64 55.454 24.64 20.91 0 39.028-8.208 54.34-24.64 15.312-16.438 22.96-35.848 22.96-58.258 0-23.16-7.648-42.944-22.96-59.376-15.318-16.434-33.43-24.648-54.34-24.648zM643.13 255.998h-126.606c1.496 14.336-0.64 36.042-0.64 71.14v348.432c0 35.856 2.136 64.774 0.64 76.036h126.606c-1.5-16.376-5.394-44.668-5.394-82.758v-343.946c-0.006-32.864 3.894-54.568 5.394-68.904zM922.336 644.2c-32.872 0-49.082-25.028-49.082-75.066v-206.64h49.864c8.96 0 17.032-0.492 27.118 0.246 10.086 0.748 14.152 0.25 19.278 0.25v-106.99h-96.258v-47.616c0-17.922 2.816-34.302 5.054-44.542h-129.958c2.242 10.24 2.028 25.876 2.028 46.79v45.368h-56.32v106.988c15.364-2.24 29.090-3.356 38.796-3.356l17.524 1.118v202.786c0 62.742 7.958 108.672 23.636 137.8 20.922 38.84 57.622 58.258 112.136 58.258 38.848 0 73.118-7.464 98.714-22.41v-112.032c-20.474 12.7-39.382 19.048-62.53 19.048z"></path>
</symbol>
<symbol id="icon-github3" viewBox="0 0 1024 1024">
	<title>github3</title>
	<path class="path1" d="M263.472 759.368c0 27.052 22.894 40.582 68.668 40.582 40.064 0 60.088-14.042 60.088-42.134 0-26.538-21.846-39.796-65.544-39.796-42.146-0.004-63.212 13.776-63.212 41.348zM853.348 0h-682.66c-93.876 0-170.688 76.81-170.688 170.688v682.626c0 93.936 76.812 170.686 170.688 170.686h682.66c93.868 0 170.652-76.75 170.652-170.688v-682.624c0-93.878-76.782-170.688-170.652-170.688zM475.728 408.988c-7.284 2.604-17.688 5.458-31.212 8.586 4.16 11.966 6.246 23.152 6.246 33.554 0 33.292-10.018 62.298-30.044 87.012-20.030 24.708-45.912 39.406-77.646 44.086-20.804 3.126-31.208 14.312-31.208 33.558 0 6.762 3.378 13.53 10.144 20.29 8.844 9.886 21.848 16.132 39.018 18.734 74.39 11.442 111.586 42.394 111.586 92.854 0 80.642-48.124 120.962-144.362 120.962-39.542 0-72.056-7.026-97.544-21.070-32.258-17.688-48.376-45.52-48.376-83.5 0-43.704 24.192-73.616 72.564-89.738v-1.56c-17.684-10.924-26.526-27.57-26.526-49.944 0-29.132 8.324-47.344 24.968-54.622v-1.562c-16.646-5.724-31.474-18.732-44.48-39.024-14.564-21.852-21.85-45.26-21.85-70.23 0-37.458 13.27-68.67 39.792-93.64 25.496-23.414 55.928-35.116 91.306-35.116 25.494 0 49.158 6.238 71.010 18.722 24.97 0 53.842-6.24 86.626-18.722l-0.012 80.37zM602.178 678.994h-88.186c1.042-10.402 1.558-28.084 1.558-53.064v-242.692c0-24.454-0.522-41.364-1.558-50.718h88.186c-1.042 9.884-1.562 26.27-1.562 49.164v239.564c0 26.534 0.522 45.784 1.562 57.746zM596.318 254.482c-10.664 11.444-23.282 17.162-37.846 17.162-15.086 0-27.958-5.718-38.626-17.162-10.666-11.452-16.002-24.972-16.002-40.578 0-16.134 5.336-29.912 16.002-41.366 10.666-11.442 23.54-17.168 38.626-17.168 14.564 0 27.184 5.726 37.846 17.168 10.666 11.456 15.998 25.23 15.998 41.366 0 15.606-5.332 29.128-15.998 40.578zM841.69 668.848c-19.254 10.41-42.406 15.606-69.458 15.606-37.97 0-64.248-13.52-78.81-40.574-10.93-20.29-16.386-52.28-16.386-95.98v-139.684h0.778v-1.562l-11.706-0.782c-6.764 0-15.612 0.782-26.534 2.342v-75.694h38.234v-30.432c0-14.57-0.778-26.28-2.34-35.12h90.518c-1.55 9.88-2.336 21.066-2.336 33.552v31.998h67.886v75.692c-2.598 0-7.41-0.258-14.436-0.778-7.024-0.522-13.656-0.786-19.898-0.786h-33.554v145.144c0 34.864 11.45 52.29 34.334 52.29 16.126 0 30.696-4.418 43.708-13.264v78.032zM321.216 400.406c-32.776 0-49.164 19.254-49.164 57.746 0 35.902 16.388 53.848 49.164 53.848 31.736 0 47.602-18.208 47.602-54.626 0-15.090-3.64-28.094-10.922-39.022-8.846-11.962-21.074-17.946-36.68-17.946z"></path>
</symbol>
<symbol id="icon-tux" viewBox="0 0 1024 1024">
	<title>tux</title>
	<path class="path1" d="M567.656 736.916c-81.944 38.118-158.158 37.716-209.34 34.020-61.052-4.41-110.158-21.124-131.742-35.732-13.3-9.006-31.384-5.522-40.39 7.782-9.004 13.302-5.52 31.386 7.782 40.39 34.698 23.486 96.068 40.954 160.162 45.58 10.866 0.784 22.798 1.278 35.646 1.278 55.782 0 126.626-5.316 202.42-40.57 14.564-6.778 20.878-24.074 14.104-38.64-6.776-14.566-24.076-20.872-38.642-14.108zM890.948 693.816c2.786-252.688 28.762-730.206-454.97-691.612-477.6 38.442-350.964 542.968-358.082 711.95-6.308 89.386-35.978 198.648-77.896 309.846h129.1c13.266-47.122 23.024-93.72 27.232-138.15 7.782 5.428 16.108 10.674 24.994 15.7 14.458 8.518 26.884 19.844 40.040 31.834 30.744 28.018 65.59 59.774 133.712 63.752 4.572 0.262 9.174 0.394 13.676 0.394 68.896 0 116.014-30.154 153.878-54.382 18.14-11.612 33.818-21.64 48.564-26.452 41.91-13.12 78.532-34.296 105.904-61.252 4.276-4.208 8.242-8.538 11.962-12.948 15.246 55.878 36.118 118.758 59.288 181.504h275.65c-66.174-102.224-134.436-202.374-133.052-330.184zM124.11 556.352c0-0.016 0-0.030-0.002-0.046-4.746-82.462 34.71-151.832 88.126-154.936 53.412-3.106 100.56 61.228 105.304 143.692 0 0.014 0.004 0.030 0.004 0.044 0.256 4.446 0.368 8.846 0.37 13.206-16.924 4.256-32.192 10.436-45.872 17.63-0.052-0.612-0.092-1.216-0.152-1.83 0-0.008 0-0.018 0-0.026-4.57-46.81-29.572-82.16-55.852-78.958-26.28 3.204-43.88 43.75-39.312 90.558 0 0.010 0.004 0.018 0.004 0.026 1.992 20.408 7.868 38.636 16.042 52.444-2.034 1.604-7.784 5.812-14.406 10.656-4.97 3.634-11.020 8.058-18.314 13.43-19.882-26.094-33.506-63.58-35.94-105.89zM665.26 760.178c-1.9 43.586-58.908 84.592-111.582 101.044l-0.296 0.096c-21.9 7.102-41.428 19.6-62.104 32.83-34.732 22.224-70.646 45.208-122.522 45.208-3.404 0-6.894-0.104-10.326-0.296-47.516-2.778-69.742-23.032-97.88-48.676-14.842-13.526-30.19-27.514-49.976-39.124l-0.424-0.244c-42.706-24.104-69.212-54.082-70.908-80.194-0.842-12.98 4.938-24.218 17.182-33.4 26.636-19.972 44.478-33.022 56.284-41.658 13.11-9.588 17.068-12.48 20-15.264 2.096-1.986 4.364-4.188 6.804-6.562 24.446-23.774 65.36-63.562 128.15-63.562 38.404 0 80.898 14.8 126.17 43.902 21.324 13.878 39.882 20.286 63.38 28.4 16.156 5.578 34.468 11.902 58.992 22.404l0.396 0.164c22.88 9.404 49.896 26.564 48.66 54.932zM652.646 657.806c-4.4-2.214-8.974-4.32-13.744-6.286-22.106-9.456-39.832-15.874-54.534-20.998 8.116-15.894 13.16-35.72 13.624-57.242 0-0.010 0-0.022 0-0.030 1.126-52.374-25.288-94.896-58.996-94.976-33.71-0.078-61.95 42.314-63.076 94.686 0 0.010 0 0.018 0 0.028-0.038 1.714-0.042 3.416-0.020 5.11-20.762-9.552-41.18-16.49-61.166-20.76-0.092-1.968-0.204-3.932-0.244-5.92 0-0.016 0-0.036 0-0.050-1.938-95.412 56.602-174.39 130.754-176.402 74.15-2.014 135.828 73.7 137.772 169.11 0 0.018 0 0.038 0 0.052 0.874 43.146-10.66 82.866-30.37 113.678z"></path>
</symbol>
<symbol id="icon-apple" viewBox="0 0 1024 1024">
	<title>apple</title>
	<path class="path1" d="M791.498 544.092c-1.294-129.682 105.758-191.876 110.542-194.966-60.152-88.020-153.85-100.078-187.242-101.472-79.742-8.074-155.596 46.948-196.066 46.948-40.368 0-102.818-45.754-168.952-44.552-86.916 1.292-167.058 50.538-211.812 128.38-90.304 156.698-23.126 388.84 64.89 515.926 43.008 62.204 94.292 132.076 161.626 129.58 64.842-2.588 89.362-41.958 167.756-41.958s100.428 41.958 169.050 40.67c69.774-1.296 113.982-63.398 156.692-125.796 49.39-72.168 69.726-142.038 70.924-145.626-1.548-0.706-136.060-52.236-137.408-207.134zM662.562 163.522c35.738-43.358 59.86-103.512 53.28-163.522-51.478 2.096-113.878 34.29-150.81 77.55-33.142 38.376-62.148 99.626-54.374 158.436 57.466 4.484 116.128-29.204 151.904-72.464z"></path>
</symbol>
<symbol id="icon-finder" viewBox="0 0 1024 1024">
	<title>finder</title>
	<path class="path1" d="M513 768c-132.312 0-261.674-19.372-386.1-57.698l20.248-60.742c117.904 36.158 240.476 54.44 365.852 54.44 16.344 0 32.638-0.328 48.882-0.948 4.226-77.56 14.118-127.052 14.118-127.052s-64 0-192 0c0-175.010 59.818-330.054 124.93-447h-508.93v766h566.176c-4.672-45.684-6.304-88.86-6.154-127.84-15.632 0.548-31.306 0.84-47.022 0.84zM192 256h64v128h-64v-128zM1024 129h-427.13c-1.948 3.196-3.894 6.414-5.84 9.686-38.416 64.572-68.936 130.758-90.716 196.72-18.206 55.132-30.302 110.232-36.172 164.594h204.858l-18.458 90.834c-0.314 1.616-8.17 42.844-12.2 106.942 81.864-8.126 162.222-24.206 240.514-48.214l20.248 60.742c-85.566 26.356-173.464 43.748-263.052 52.042-0.036 4.376-0.056 8.79-0.042 13.28 0.124 40.63 2.346 80.57 6.602 119.376h381.388v-766.002zM832 384h-64v-128h64v128zM587.264 1024h78.168c-5.46-21.814-10.188-44.192-14.138-67.086-3.494-20.252-6.382-40.92-8.686-61.914h-76.432c4.232 41.378 10.95 84.802 21.088 129zM688.448 0h-96.396c-25.75 34.87-54.932 78.37-83.12 129h87.938c33.674-55.312 67.164-99.402 91.578-129z"></path>
</symbol>
<symbol id="icon-android" viewBox="0 0 1024 1024">
	<title>android</title>
	<path class="path1" d="M864 320c-35.2 0-64 28.8-64 64v256c0 35.2 28.8 64 64 64s64-28.8 64-64v-256c0-35.2-28.8-64-64-64zM96 320c-35.2 0-64 28.8-64 64v256c0 35.2 28.8 64 64 64s64-28.8 64-64v-256c0-35.2-28.802-64-64-64zM192 736c0 53.020 42.98 96 96 96h32v128c0 35.2 28.8 64 64 64s64-28.8 64-64v-128h64v128c0 35.2 28.802 64 64 64s64-28.8 64-64v-128h32c53.020 0 96-42.98 96-96v-352h-576v352zM598.598 89.494l40.504-77.806c2.032-3.902 0.5-8.758-3.402-10.79s-8.758-0.5-10.79 3.402l-41.118 78.986c-32.198-12.448-67.194-19.286-103.792-19.286-36.596 0-71.592 6.838-103.796 19.286l-41.116-78.984c-2.032-3.902-6.886-5.434-10.79-3.402s-5.434 6.886-3.402 10.79l40.5 77.808c-90.63 41.018-156.24 127.584-167.62 230.504h572.44c-11.376-102.924-76.986-189.488-167.618-230.508zM352 270.4c-25.626 0-46.4-20.774-46.4-46.4s20.774-46.4 46.4-46.4 46.4 20.774 46.4 46.4c-0.002 25.626-20.774 46.4-46.4 46.4zM608 270.4c-25.626 0-46.402-20.774-46.402-46.4s20.778-46.4 46.402-46.4 46.398 20.774 46.398 46.4c0 25.626-20.772 46.4-46.398 46.4z"></path>
</symbol>
<symbol id="icon-windows" viewBox="0 0 1024 1024">
	<title>windows</title>
	<path class="path1" d="M412.23 511.914c-47.708-24.518-94.086-36.958-137.88-36.958-5.956 0-11.952 0.18-17.948 0.708-55.88 4.624-106.922 19.368-139.75 30.828-8.708 3.198-17.634 6.576-26.83 10.306l-89.822 311.394c61.702-22.832 116.292-33.938 166.27-33.938 80.846 0 139.528 30.208 187.992 61.304 22.962-77.918 78.044-266.090 94.482-322.324-11.95-7.284-24.076-14.57-36.514-21.32zM528.348 591.070l-90.446 314.148c26.832 15.372 117.098 64.050 186.212 64.050 55.792 0 118.252-14.296 190.834-43.792l86.356-301.976c-58.632 18.922-114.876 28.52-167.464 28.52-95.95 0-163.114-31.098-205.492-60.95zM292.822 368.79c77.118 0.798 134.152 30.208 181.416 60.502l92.752-317.344c-19.546-11.196-70.806-39.094-107.858-48.6-24.386-5.684-50.020-8.616-77.204-8.616-51.796 0.976-108.388 13.946-172.888 39.8l-88.44 310.596c64.808-24.436 120.644-36.34 172.086-36.34 0.046 0.002 0.136 0.002 0.136 0.002zM1024 198.124c-58.814 22.832-116.208 34.466-171.028 34.466-91.686 0-159.292-31.802-203.094-62.366l-91.95 318.236c61.746 39.708 128.29 59.878 198.122 59.878 56.948 0 115.94-13.68 175.462-40.688l-0.182-2.222 3.734-0.886 88.936-306.418z"></path>
</symbol>
<symbol id="icon-windows8" viewBox="0 0 1024 1024">
	<title>windows8</title>
	<path class="path1" d="M0.35 512l-0.35-312.074 384-52.144v364.218zM448 138.482l511.872-74.482v448h-511.872zM959.998 576l-0.126 448-511.872-72.016v-375.984zM384 943.836l-383.688-52.594-0.020-315.242h383.708z"></path>
</symbol>
<symbol id="icon-libreoffice" viewBox="0 0 1024 1024">
	<title>libreoffice</title>
	<path class="path1" d="M534.626 22.628c-12.444-12.444-37.026-22.628-54.626-22.628h-384c-17.6 0-32 14.4-32 32v960c0 17.6 14.4 32 32 32h768c17.6 0 32-14.4 32-32v-576c0-17.6-10.182-42.182-22.626-54.626l-338.748-338.746zM832 960h-704v-896h351.158c2.916 0.48 8.408 2.754 10.81 4.478l337.556 337.554c1.722 2.402 3.996 7.894 4.476 10.81v543.158zM864 0h-192c-17.6 0-21.818 10.182-9.374 22.626l210.746 210.746c12.446 12.446 22.628 8.228 22.628-9.372v-192c0-17.6-14.4-32-32-32z"></path>
</symbol>
<symbol id="icon-file-zip" viewBox="0 0 1024 1024">
	<title>file-zip</title>
	<path class="path1" d="M416 128h96v64h-96zM320 192h96v64h-96zM416 256h96v64h-96zM320 320h96v64h-96zM416 384h96v64h-96zM320 448h96v64h-96zM416 512v64h-96v224c0 17.674 14.326 32 32 32h128c17.674 0 32-14.326 32-32v-288h-96zM480 768h-128v-64h128v64zM903.432 199.43l-142.864-142.862c-31.112-31.112-92.568-56.568-136.568-56.568h-480c-44 0-80 36-80 80v864c0 44 36 80 80 80h736c44 0 80-36 80-80v-608c0-44-25.456-105.458-56.568-136.57zM858.178 244.686c3.13 3.13 6.25 6.974 9.28 11.314h-163.458v-163.456c4.34 3.030 8.184 6.15 11.314 9.28l142.864 142.862zM896 944c0 8.672-7.328 16-16 16h-736c-8.672 0-16-7.328-16-16v-864c0-8.672 7.328-16 16-16h480c4.832 0 10.254 0.61 16 1.704v254.296h254.296c1.094 5.746 1.704 11.166 1.704 16v608z"></path>
</symbol>
<symbol id="icon-file-xml" viewBox="0 0 1024 1024">
	<title>file-xml</title>
	<path class="path1" d="M448 576l-64-64-192 192 192 192 64-64-128-128zM576 832l64 64 192-192-192-192-64 64 128 128zM903.432 199.43l-142.864-142.862c-31.112-31.112-92.568-56.568-136.568-56.568h-480c-44 0-80 36-80 80v864c0 44 36 80 80 80h736c44 0 80-36 80-80v-608c0-44-25.456-105.458-56.568-136.57zM858.178 244.686c3.13 3.13 6.25 6.974 9.28 11.314h-163.458v-163.456c4.34 3.030 8.184 6.15 11.314 9.28l142.864 142.862zM896 944c0 8.672-7.328 16-16 16h-736c-8.672 0-16-7.328-16-16v-864c0-8.672 7.328-16 16-16h480c4.832 0 10.254 0.61 16 1.704v254.296h254.296c1.094 5.746 1.704 11.166 1.704 16v608z"></path>
</symbol>
<symbol id="icon-file-css" viewBox="0 0 1024 1024">
	<title>file-css</title>
	<path class="path1" d="M384 611.446v-114.226c0-15.128 6.696-29.436 18.854-40.286 12.16-10.848 28.192-16.826 45.146-16.826v-57.11c-70.4 0-128 51.4-128 114.222v85.666c0 15.772-14.328 28.558-32 28.558h-32v57.11h32c17.674 0 32 12.79 32 28.558v85.676c0 62.814 57.6 114.214 128 114.214v-57.112c-16.954 0-32.988-5.976-45.146-16.826-12.158-10.852-18.854-25.154-18.854-40.278v-114.234c0-15.77-14.328-28.554-32-28.554 17.674 0.002 32-12.788 32-28.552zM640 668.554v114.234c0 15.124-6.696 29.426-18.854 40.278-12.158 10.85-28.19 16.826-45.146 16.826v57.112c70.402 0 128-51.4 128-114.214v-85.676c0-15.772 14.328-28.558 32-28.558h32v-57.11h-32c-17.672 0-32-12.79-32-28.558v-85.668c0-62.824-57.598-114.222-128-114.222v57.11c16.958 0 32.988 5.978 45.146 16.83 12.16 10.848 18.854 25.156 18.854 40.284v114.228c0 15.766 14.328 28.552 32 28.552-17.672-0.002-32 12.788-32 28.552zM903.432 199.43l-142.864-142.862c-31.112-31.112-92.568-56.568-136.568-56.568h-480c-44 0-80 36-80 80v864c0 44 36 80 80 80h736c44 0 80-36 80-80v-608c0-44-25.456-105.458-56.568-136.57zM858.178 244.686c3.13 3.13 6.25 6.974 9.28 11.314h-163.458v-163.456c4.34 3.030 8.184 6.15 11.314 9.28l142.864 142.862zM896 944c0 8.672-7.328 16-16 16h-736c-8.672 0-16-7.328-16-16v-864c0-8.672 7.328-16 16-16h480c4.832 0 10.254 0.61 16 1.704v254.296h254.296c1.094 5.746 1.704 11.166 1.704 16v608z"></path>
</symbol>
<symbol id="icon-html5" viewBox="0 0 1024 1024">
	<title>html5</title>
	<path class="path1" d="M60.538 0l82.144 921.63 368.756 102.37 369.724-102.524 82.3-921.476h-902.924zM784.63 301.428h-432.54l10.302 115.75h411.968l-31.042 347.010-231.844 64.254-231.572-64.254-15.83-177.512h113.494l8.048 90.232 125.862 33.916 0.278-0.078 125.934-33.992 13.070-146.55h-391.74l-30.494-341.8h566.214l-10.108 113.024z"></path>
</symbol>
<symbol id="icon-css3" viewBox="0 0 1024 1024">
	<title>css3</title>
	<path class="path1" d="M152.388 48.522l-34.36 171.926h699.748l-21.884 111.054h-700.188l-33.892 171.898h699.684l-39.018 196.064-282.012 93.422-244.4-93.422 16.728-85.042h-171.898l-40.896 206.352 404.226 154.704 466.006-154.704 153.768-772.252z"></path>
</symbol>
<symbol id="icon-chrome" viewBox="0 0 1024 1024">
	<title>chrome</title>
	<path class="path1" d="M258.278 446.542l-146.532-253.802c93.818-117.464 238.234-192.74 400.254-192.74 187.432 0 351.31 100.736 440.532 251h-417.77c-7.504-0.65-15.092-1-22.762-1-121.874 0-224.578 83.644-253.722 196.542zM695.306 325h293.46c22.74 57.93 35.234 121.004 35.234 187 0 280.826-226.1 508.804-506.186 511.926l209.394-362.678c29.48-42.378 46.792-93.826 46.792-149.248 0-73.17-30.164-139.42-78.694-187zM326 512c0-102.56 83.44-186 186-186s186 83.44 186 186c0 102.56-83.44 186-186 186s-186-83.44-186-186zM582.182 764.442l-146.578 253.878c-246.532-36.884-435.604-249.516-435.604-506.32 0-91.218 23.884-176.846 65.696-251.024l209.030 362.054c41.868 89.112 132.476 150.97 237.274 150.97 24.3 0 47.836-3.34 70.182-9.558z"></path>
</symbol>
<symbol id="icon-firefox" viewBox="0 0 1024 1024">
	<title>firefox</title>
	<path class="path1" d="M1022.526 334.14l-11.86 76.080c0 0-16.954-140.856-37.732-193.514-31.846-80.688-46.014-80.040-46.108-79.922 21.33 54.204 17.462 83.324 17.462 83.324s-37.792-102.998-137.712-135.768c-110.686-36.282-170.57-26.364-177.488-24.486-1.050-0.008-2.064-0.010-3.030-0.010 0.818 0.062 1.612 0.146 2.426 0.212-0.034 0.020-0.090 0.042-0.082 0.052 0.45 0.548 122.306 21.302 143.916 50.996 0 0-51.76 0-103.272 14.842-2.328 0.666 189.524 23.964 228.746 215.674 0 0-21.030-43.876-47.040-51.328 17.106 52.036 12.714 150.776-3.576 199.85-2.096 6.312-4.24-27.282-36.328-41.75 10.28 73.646-0.616 190.456-51.708 222.632-3.982 2.504 32.030-115.31 7.242-69.762-142.708 218.802-311.404 100.972-387.248 49.11 38.866 8.462 112.654-1.318 145.314-25.612 0.042-0.030 0.078-0.056 0.118-0.086 35.468-24.252 56.472-41.964 75.334-37.772 18.874 4.214 31.438-14.726 16.78-31.53-14.676-16.838-50.314-39.978-98.524-27.366-34 8.904-76.134 46.522-140.448 8.432-49.364-29.25-54.012-53.546-54.45-70.376 1.218-5.966 2.754-11.536 4.576-16.624 5.682-15.87 22.912-20.658 32.494-24.438 16.256 2.792 30.262 7.862 44.968 15.406 0.19-4.894 0.252-11.39-0.018-18.76 1.41-2.802 0.538-11.252-1.722-21.58-1.302-10.308-3.42-20.974-6.752-30.692 0.012-0.002 0.020-0.010 0.030-0.014 0.056-0.018 0.108-0.040 0.156-0.070 0.078-0.044 0.146-0.112 0.208-0.19 0.012-0.020 0.030-0.034 0.044-0.052 0.082-0.124 0.154-0.272 0.198-0.466 1.020-4.618 12.022-13.524 25.718-23.1 12.272-8.58 26.702-17.696 38.068-24.752 10.060-6.248 17.72-10.882 19.346-12.098 0.618-0.466 1.358-1.012 2.164-1.636 0.15-0.116 0.3-0.232 0.454-0.354 0.094-0.074 0.19-0.148 0.286-0.226 5.41-4.308 13.484-12.448 15.178-29.578 0.004-0.042 0.010-0.080 0.012-0.122 0.050-0.504 0.092-1.014 0.13-1.534 0.028-0.362 0.050-0.726 0.072-1.096 0.014-0.284 0.032-0.566 0.044-0.856 0.030-0.674 0.050-1.364 0.060-2.064 0-0.040 0.002-0.076 0.004-0.116 0.022-1.658-0.006-3.386-0.104-5.202-0.054-1.014-0.126-1.93-0.298-2.762-0.008-0.044-0.018-0.092-0.028-0.136-0.018-0.082-0.036-0.164-0.058-0.244-0.036-0.146-0.076-0.292-0.122-0.43-0.006-0.018-0.010-0.032-0.016-0.046-0.052-0.16-0.112-0.314-0.174-0.464-0.004-0.006-0.004-0.010-0.006-0.016-1.754-4.108-8.32-5.658-35.442-6.118-0.026-0.002-0.050-0.002-0.076-0.002v0c-11.066-0.188-25.538-0.194-44.502-0.118-33.25 0.134-51.628-32.504-57.494-45.132 8.040-44.46 31.276-76.142 69.45-97.626 0.722-0.406 0.58-0.742-0.274-0.978 7.464-4.514-90.246-0.124-135.186 57.036-39.888-9.914-74.654-9.246-104.616-2.214-5.754-0.162-12.924-0.88-21.434-2.652-19.924-18.056-48.448-51.402-49.976-91.208 0 0-0.092 0.072-0.252 0.204-0.020-0.382-0.056-0.76-0.072-1.142 0 0-60.716 46.664-51.628 173.882-0.022 2.036-0.064 3.986-0.12 5.874-16.432 22.288-24.586 41.020-25.192 45.156-14.56 29.644-29.334 74.254-41.356 141.98 0 0 8.408-26.666 25.284-56.866-12.412 38.022-22.164 97.156-16.436 185.856 0 0 1.514-19.666 6.874-47.994 4.186 55.010 22.518 122.924 68.858 202.788 88.948 153.32 225.67 230.74 376.792 242.616 26.836 2.212 54.050 2.264 81.424 0.186 2.516-0.178 5.032-0.364 7.55-0.574 30.964-2.174 62.134-6.852 93.238-14.366 425.172-102.798 378.942-616.198 378.942-616.198z"></path>
</symbol>
<symbol id="icon-IE" viewBox="0 0 1024 1024">
	<title>IE</title>
	<path class="path1" d="M734.202 628.83h236.050c1.82-16.37 2.548-33.098 2.548-50.196 0-80.224-21.534-155.468-59.124-220.266 38.88-103.308 37.492-190.988-14.556-243.39-49.496-49.28-182.29-41.28-332.412 25.198-11.104-0.84-22.318-1.272-33.638-1.272-206.048 0-378.926 141.794-426.708 332.85 64.638-82.754 132.638-142.754 223.478-186.448-8.26 7.74-56.454 55.652-64.56 63.764-239.548 239.478-315.090 552.306-233.806 633.604 61.786 61.774 173.758 51.342 302.376-11.648 59.806 30.458 127.5 47.63 199.218 47.63 193.134 0 356.804-124.316 416.090-297.448h-237.868c-32.734 60.382-96.748 101.48-170.218 101.48-73.468 0-137.484-41.098-170.216-101.48-14.55-27.274-22.914-58.554-22.914-91.656v-0.722h386.26zM348.302 512.804c5.456-97.11 86.2-174.584 184.766-174.584s179.312 77.472 184.766 174.584h-369.532zM896.966 163.808c33.526 33.88 32.688 96.214 4.012 174.022-49.136-74.908-120.518-133.936-204.792-167.64 90.106-38.638 163.406-43.756 200.78-6.382zM93.482 967.256c-42.782-42.796-29.884-132.618 25.23-240.832 34.308 96.27 101.156 177.090 187.336 229.154-95.43 43.318-173.536 50.674-212.566 11.678z"></path>
</symbol>
<symbol id="icon-opera" viewBox="0 0 1024 1024">
	<title>opera</title>
	<path class="path1" d="M510.046 0c-279.724 0-480.748 202.896-480.748 507.224 0 270.818 195.502 516.776 480.784 516.776 288.078 0 484.62-245.886 484.62-516.776 0-306.76-207.446-507.224-484.656-507.224zM688.358 498.542c-0.068 169.352-9.098 410.482-178.276 410.482v0.034c-166.784 0-173.432-241.266-173.432-410.308 0-198.38 18.56-388.568 173.432-388.568 154.874 0 178.276 192.584 178.276 388.36z"></path>
</symbol>
<symbol id="icon-safari" viewBox="0 0 1024 1024">
	<title>safari</title>
	<path class="path1" d="M512 64c-24.064 0-47.708 1.792-70.824 5.212-0.3-0.782-0.624-1.548-0.982-2.296 12.826-10.002 19.55-23.83 16.634-37.552-3.734-17.564-22.394-29.364-46.434-29.364-5.18 0-10.458 0.562-15.68 1.672-30.168 6.414-50.146 28.622-45.482 50.562 2.834 13.338 14.292 23.338 30.164 27.384-0.032 0.972-0.016 1.95 0.042 2.934-200.622 57.53-347.438 242.338-347.438 461.448 0 265.098 214.904 480 480 480 265.098 0 480-214.902 480-480 0-265.096-214.902-480-480-480zM364.882 48.908c-2.706-12.726 12.48-27.19 33.158-31.584 4.132-0.878 8.29-1.324 12.354-1.324 16.036 0 28.694 6.864 30.784 16.69 1.596 7.51-3.070 15.61-11.386 21.904-7.034-4.966-16.016-7.126-25.1-5.196-9.044 1.922-16.348 7.508-20.758 14.856-10.184-2.45-17.508-8.084-19.052-15.346zM769.386 801.386c-43.968 43.968-97.21 75.278-155.31 92.154l-42.396-68.768-10.746 79.958c-16.090 2.152-32.426 3.27-48.934 3.27-97.228 0-188.636-37.864-257.386-106.614-43.968-43.966-75.278-97.21-92.154-155.308l68.768-42.398-79.96-10.746c-2.15-16.090-3.268-32.426-3.268-48.934 0-97.228 37.862-188.636 106.614-257.386 43.968-43.968 97.212-75.278 155.31-92.156l42.396 68.77 10.748-79.96c16.088-2.15 32.424-3.268 48.932-3.268 97.228 0 188.636 37.862 257.386 106.614 43.968 43.968 75.278 97.212 92.154 155.31l-68.77 42.398 79.96 10.746c2.152 16.088 3.27 32.424 3.27 48.932 0 97.228-37.864 188.636-106.614 257.386zM760.902 295.098l-196.978 149.704c-14.644-7.658-30.876-12.062-47.416-12.726l-51.080-107.18-3.068 118.664c-13.284 6.536-25.104 15.664-34.876 26.95l-63.088-22.364 46.092 48.538c-6.334 13.518-9.866 28.030-10.434 42.824l-107.158 51.066 118.738 3.068c0.38 0.768 0.774 1.526 1.17 2.282l-149.704 196.98 196.978-149.704c14.644 7.656 30.874 12.060 47.416 12.724l51.080 107.182 3.066-118.664c13.286-6.538 25.106-15.664 34.878-26.952l63.090 22.368-46.094-48.54c6.336-13.52 9.868-28.030 10.436-42.824l107.156-51.066-118.736-3.070c-0.378-0.766-0.774-1.524-1.17-2.28l149.702-196.98zM512.102 444.534v0zM492.042 450.098c6.726-1.43 13.444-2.118 20.056-2.118 4.144 0 8.25 0.27 12.294 0.796l0.092 0.032-0.010-0.022c8.732 1.144 17.176 3.5 25.132 6.896l-71.546 54.376-54.38 71.552c-2.376-5.594-4.27-11.484-5.58-17.652-11.026-51.86 22.080-102.836 73.942-113.86zM562.12 625.884v0 0c-9.056 5.544-19.182 9.684-30.16 12.018-6.726 1.43-13.444 2.118-20.054 2.118-4.15 0-8.258-0.272-12.308-0.798l-0.068-0.010c-8.734-1.142-17.174-3.5-25.132-6.894l71.544-54.376 54.38-71.554c2.376 5.594 4.27 11.486 5.58 17.654 8.69 40.882-10.056 81.2-43.782 101.842z"></path>
</symbol>
<symbol id="icon-IcoMoon" viewBox="0 0 1024 1024">
	<title>IcoMoon</title>
	<path class="path1" d="M259.544 511.998c0-65.416 53.030-118.446 118.446-118.446s118.446 53.030 118.446 118.446c0 65.416-53.030 118.446-118.446 118.446s-118.446-53.030-118.446-118.446zM512.004 0c-282.774 0-512.004 229.232-512.004 512s229.226 512 512.004 512c282.764 0 511.996-229.23 511.996-512 0-282.768-229.23-512-511.996-512zM379.396 959.282c-153.956-89.574-257.468-256.324-257.468-447.282s103.512-357.708 257.462-447.282c154.010 89.562 257.59 256.288 257.59 447.282 0 190.988-103.58 357.718-257.584 447.282z"></path>
</symbol>
<symbol id="icon-comment-discussion" viewBox="0 0 896 1024">
	<title>comment-discussion</title>
	<path class="path1" d="M256 512c0-64 0-192 0-192s-160 0-192 0-64 32-64 64 0 288 0 320 32 64 64 64 64 0 64 0v192l194-192s162 0 192 0 62-32 62-64 0-64 0-64-128 0-192 0-128-64-128-128zM832 128c-32 0-416 0-448 0s-64 32-64 64 0 288 0 320 32 64 64 64 190 0 190 0l194 192v-192s32 0 64 0 64-32 64-64 0-288 0-320-32-64-64-64z"></path>
</symbol>
<symbol id="icon-gift2" viewBox="0 0 896 1024">
	<title>gift2</title>
	<path class="path1" d="M448 960h320v-320h-320v320zM64 960h320v-320h-320v320zM447.75 376.188c31.469-3.5 66.875-7.406 87.375-9.719 83.875-9.344 159.375-84.875 168.687-168.719 9.312-83.75-51-144.125-134.688-134.719-65.436 7.313-125.28 54.969-153.124 115.344-27.844-60.375-87.688-108.031-153.094-115.406-83.718-9.344-144.125 51.031-134.718 134.781 9.344 83.844 84.875 159.312 168.656 168.719 20.531 2.312 55.938 6.281 87.406 9.719-0.5 4.218-0.25 7.812-0.25 7.812h64c0 0 0.25-3.594-0.25-7.812zM555.375 140.688c45.25-5.062 78 27.562 72.875 72.875-5 45.312-45.875 86.156-91.125 91.219-45.375 5.031-78-27.594-72.938-72.906s45.938-86.157 91.188-91.188zM294.906 304.781c-45.25-5.062-86.062-45.906-91.125-91.219s27.594-77.938 72.812-72.875c45.312 5.031 86.156 45.875 91.222 91.188 5.060 45.313-27.596 77.937-72.909 72.906zM448 384v192h384v-192h-384zM0 576h384v-192h-384v192z"></path>
</symbol>
<symbol id="icon-stop" viewBox="0 0 1024 1024">
	<title>stop</title>
	<path class="path1" d="M704 0h-384l-320 320v384l320 320h384l320-320v-384l-320-320zM896 640l-256 256h-256l-256-256v-256l256-256h256l256 256v256zM448 576h128v-320h-128v320zM448 768h128v-128h-128v128z"></path>
</symbol>
</defs>
</svg>
